<svg width="124" height="24" viewBox="0 0 124 24" fill="none" xmlns="http://www.w3.org/2000/svg">
<g clip-path="url(#clip0_1135_32517)">
<path d="M92.7899 6.63789C92.1556 6.59838 91.5442 6.38605 91.0219 6.02391C90.4996 5.66177 90.0863 5.16361 89.8268 4.58341C89.6493 4.14893 89.5682 3.68111 89.5892 3.21223C89.6101 2.74336 89.7325 2.28461 89.948 1.86767C90.8314 0.191782 93.2745 -0.451819 95.0287 0.330597L95.1044 0.363408C95.8687 0.75283 96.4841 1.38239 96.856 2.15539C97.4592 3.4426 97.1639 4.96705 96.4421 5.99681C95.931 6.68766 95.2292 7.21404 94.4229 7.51116C93.4016 7.94549 92.2811 8.09297 91.1822 7.93771C91.6687 7.81628 92.1081 7.55268 92.4442 7.18053C92.5834 7.01613 92.6998 6.83358 92.7899 6.63789Z" fill="#C9FDE2"/>
<path d="M0 11.1059V11.0554C0 5.90408 3.96256 1.86328 9.31328 1.86328C12.9225 1.86328 15.2445 3.37764 16.8093 5.55074L13.1244 8.40277C12.1148 7.14081 10.9538 6.33315 9.2628 6.33315C6.78936 6.33315 5.04785 8.42801 5.04785 11.0024V11.0529C5.04785 13.703 6.78936 15.7726 9.2628 15.7726C11.1053 15.7726 12.1906 14.9145 13.2506 13.6273L16.9355 16.2522C15.2697 18.5489 13.0235 20.24 9.11137 20.24C4.06352 20.24 0 16.3784 0 11.1059Z" fill="white"/>
<path d="M17.9453 13.1229V13.0724C17.9453 9.18555 21.1255 5.92969 25.5171 5.92969C29.9087 5.92969 33.0384 9.13507 33.0384 13.0219V13.0724C33.0384 16.9592 29.8582 20.2151 25.4666 20.2151C21.075 20.2151 17.9453 17.0072 17.9453 13.1229ZM28.3691 13.1229V13.0724C28.3691 11.4066 27.1576 9.99321 25.4666 9.99321C23.7251 9.99321 22.6146 11.3814 22.6146 13.0219V13.0724C22.6146 14.7382 23.8261 16.1516 25.5171 16.1516C27.2586 16.1516 28.3691 14.7609 28.3691 13.1229Z" fill="white"/>
<path d="M67.4375 15.9736V15.9231C67.4375 13.0963 69.5828 11.6325 72.7882 11.6325C73.9032 11.6333 75.0108 11.8123 76.0693 12.1625V11.9353C76.0693 10.5219 75.1859 9.71429 73.3435 9.71429C72.0518 9.71154 70.7728 9.96906 69.5828 10.4715L68.5985 7.08941C70.3479 6.35782 72.23 5.99688 74.1259 6.02936C76.5741 6.02936 78.2399 6.60986 79.3252 7.69515C80.36 8.70472 80.7891 10.1181 80.7891 12.0363V19.8857H76.0441V18.4723C75.5419 19.0353 74.9222 19.4811 74.2287 19.7781C73.5353 20.0751 72.785 20.2161 72.031 20.1911C69.4314 20.1911 67.4375 18.6995 67.4375 15.9736ZM76.1198 14.9388V14.3078C75.5254 14.0723 74.8915 13.9524 74.2521 13.9545C72.8639 13.9545 72.0563 14.6359 72.0563 15.6455V15.696C72.0563 16.6298 72.763 17.1851 73.7473 17.1851C75.1355 17.1851 76.1198 16.3017 76.1198 14.9388Z" fill="white"/>
<path d="M83.3359 1.45703H88.1314V19.8817H83.3359V1.45703Z" fill="white"/>
<path d="M90.9141 9.66797H95.7095V19.8873H90.9141V9.66797Z" fill="white"/>
<path d="M99.2091 15.6494V10.0967H97.5938V6.2326H99.2091V2.77734H104.005V6.2326H107.185V10.0967H104.007V14.7155C104.007 15.6746 104.436 16.0784 105.319 16.0784C105.952 16.0656 106.573 15.9103 107.137 15.6241V19.3848C106.11 19.9237 104.964 20.1929 103.805 20.1672C100.928 20.1647 99.2091 18.9027 99.2091 15.6494Z" fill="white"/>
<path d="M108.906 22.8127L110.398 19.4558C111.155 19.9101 111.963 20.1878 112.493 20.1878C112.711 20.2057 112.93 20.1634 113.126 20.0655C113.321 19.9676 113.487 19.8178 113.603 19.6325L108.25 6.23047H113.275L116.001 14.4585L118.575 6.23047H123.497L118.5 19.5568C117.313 22.7369 116.026 23.9989 113.3 23.9989C111.757 23.9941 110.242 23.5851 108.906 22.8127Z" fill="white"/>
<path d="M57.0405 20.1403C56.0591 20.1535 55.0898 19.9237 54.2188 19.4715C53.3534 19.0002 52.6598 18.2668 52.2375 17.3766C51.7562 16.4242 51.5156 15.2001 51.5156 13.7043V6.08203H56.9446V12.72C56.9446 13.6942 57.0985 14.3756 57.4014 14.7643C57.5489 14.953 57.7391 15.104 57.9563 15.2049C58.1734 15.3058 58.4114 15.3538 58.6508 15.3448C58.9691 15.3489 59.2819 15.2613 59.5518 15.0924C59.8643 14.8743 60.1028 14.5662 60.2358 14.2091C60.4311 13.6893 60.5211 13.136 60.5008 12.5811V6.08203H65.9298V19.8879H60.7683V15.9026L61.8006 16.9879C61.4099 17.9731 60.7149 18.8078 59.8168 19.3705C58.9798 19.8777 58.0191 20.144 57.0405 20.1403Z" fill="white"/>
<path d="M44.7513 17.9004C43.8175 19.0362 42.6313 20.0205 40.5869 20.0205C37.3562 20.0205 34.5547 17.3199 34.5547 12.9535V12.903C34.5547 8.45841 37.331 5.75781 40.5616 5.75781C42.6312 5.75781 43.8427 6.69167 44.7513 7.72647V6.05564H49.5468V23.7559H44.7513V17.9004ZM44.8271 12.903V12.8526C44.8271 11.0581 43.5903 9.77085 42.0507 9.77085C40.5112 9.77085 39.2492 11.0328 39.2492 12.8526V12.903C39.2492 14.7203 40.5112 16.0075 42.0507 16.0075C43.5903 16.0075 44.8271 14.7203 44.8271 12.903Z" fill="white"/>
</g>
<defs>
<clipPath id="clip0_1135_32517">
<rect width="123.496" height="24" fill="white"/>
</clipPath>
</defs>
</svg>
