<svg width="190" height="190" viewBox="0 0 190 190" fill="none" xmlns="http://www.w3.org/2000/svg">
<g clip-path="url(#clip0_1300_35460)">
<rect width="190" height="190" rx="16" fill="#F6FAF8"/>
<path fill-rule="evenodd" clip-rule="evenodd" d="M151.733 16.999C140.202 16.999 130.854 47.0882 130.854 84.2052C130.854 90.8804 131.156 97.3284 131.719 103.415C127.814 98.7134 123.469 93.9407 118.749 89.221C92.5033 62.9754 64.6169 48.3092 56.4629 56.4632C48.3089 64.6172 62.9751 92.5036 89.2207 118.749C93.9431 123.472 98.7186 127.819 103.423 131.726C97.3339 131.163 90.8833 130.86 84.2052 130.86C47.0883 130.86 16.999 140.208 16.999 151.74C16.999 163.271 47.0882 172.619 84.2052 172.619C90.8804 172.619 97.3284 172.317 103.415 171.754C98.7134 175.659 93.9407 180.005 89.221 184.724C62.9754 210.97 48.3092 238.856 56.4632 247.01C64.6172 255.164 92.5036 240.498 118.749 214.252C123.469 209.533 127.814 204.76 131.719 200.059C131.156 206.146 130.854 212.594 130.854 219.271C130.854 256.387 140.202 286.477 151.733 286.477C163.265 286.477 172.613 256.387 172.613 219.271C172.613 212.591 172.31 206.139 171.746 200.049C175.654 204.755 180.003 209.532 184.727 214.255C210.973 240.501 238.859 255.167 247.013 247.013C255.167 238.859 240.501 210.973 214.255 184.727C209.534 180.006 204.76 175.66 200.057 171.754C206.145 172.317 212.594 172.619 219.271 172.619C256.387 172.619 286.477 163.271 286.477 151.74C286.477 140.208 256.387 130.86 219.271 130.86C212.593 130.86 206.143 131.163 200.054 131.726C204.758 127.819 209.533 123.472 214.255 118.75C240.501 92.5042 255.167 64.6178 247.013 56.4638C238.859 48.3098 210.973 62.976 184.727 89.2216C180.003 93.9456 175.654 98.7228 171.746 103.428C172.31 97.3379 172.613 90.8854 172.613 84.2052C172.613 47.0883 163.265 16.999 151.733 16.999ZM151.41 151.602C151.411 151.648 151.411 151.694 151.411 151.74C151.411 151.784 151.411 151.828 151.41 151.871C151.429 151.89 151.448 151.908 151.467 151.927C151.481 151.94 151.494 151.953 151.507 151.966C151.54 151.999 151.572 152.032 151.604 152.066L151.666 152.065C151.689 152.064 151.711 152.064 151.733 152.064C151.78 152.064 151.828 152.065 151.875 152.066C151.906 152.033 151.937 152.001 151.969 151.969C152.001 151.938 152.033 151.906 152.066 151.875C152.065 151.83 152.064 151.785 152.064 151.74C152.064 151.694 152.065 151.648 152.066 151.602C152.033 151.571 152.001 151.54 151.969 151.508C151.954 151.492 151.938 151.476 151.923 151.461C151.906 151.444 151.89 151.427 151.874 151.41C151.827 151.411 151.78 151.411 151.733 151.411C151.689 151.411 151.646 151.411 151.602 151.41C151.57 151.443 151.539 151.475 151.507 151.507C151.475 151.539 151.443 151.571 151.41 151.602Z" fill="#E8EDEA"/>
</g>
<defs>
<clipPath id="clip0_1300_35460">
<rect width="190" height="190" rx="16" fill="white"/>
</clipPath>
</defs>
</svg>
