<svg width="16" height="17" viewBox="0 0 16 17" fill="none" xmlns="http://www.w3.org/2000/svg">
<path d="M14 8.16669C14.0023 9.0466 13.7967 9.91461 13.4 10.7C12.9296 11.6412 12.2065 12.4328 11.3116 12.9862C10.4168 13.5396 9.3855 13.8329 8.33333 13.8334C7.45342 13.8356 6.58541 13.6301 5.8 13.2334L2 14.5L3.26667 10.7C2.86995 9.91461 2.66437 9.0466 2.66667 8.16669C2.66707 7.11452 2.96041 6.08325 3.51381 5.18839C4.06722 4.29352 4.85884 3.5704 5.8 3.10002C6.58541 2.70331 7.45342 2.49772 8.33333 2.50002H8.66667C10.0562 2.57668 11.3687 3.16319 12.3528 4.14726C13.3368 5.13132 13.9233 6.44379 14 7.83335V8.16669Z" stroke="#A7AFAB" stroke-linecap="round" stroke-linejoin="round"/>
</svg>
