<svg width="147" height="114" viewBox="0 0 147 114" fill="none" xmlns="http://www.w3.org/2000/svg">
<g filter="url(#filter0_ii_1246_49245)">
<path fill-rule="evenodd" clip-rule="evenodd" d="M73.4986 0C67.2081 0 62.1087 16.4137 62.1087 36.6609C62.1087 40.3033 62.2738 43.8216 62.5811 47.1426C60.4501 44.577 58.079 41.9726 55.5035 39.3971C41.1865 25.0801 25.9745 17.0797 21.5265 21.5277C17.0785 25.9757 25.0789 41.1877 39.3959 55.5047C41.9715 58.0803 44.576 60.4514 47.1417 62.5825C43.8209 62.2752 40.303 62.1102 36.661 62.1102C16.4137 62.1102 0 67.2096 0 73.5C0 79.7905 16.4137 84.8899 36.661 84.8899C40.3028 84.8899 43.8206 84.7249 47.1412 84.4177C44.5761 86.5483 41.9721 88.919 39.3971 91.4941C25.0801 105.811 17.0797 121.023 21.5277 125.471C25.9757 129.919 41.1877 121.919 55.5047 107.602C58.0797 105.027 60.4504 102.423 62.581 99.8577C62.2738 103.179 62.1087 106.697 62.1087 110.339C62.1087 130.586 67.2081 147 73.4986 147C79.789 147 84.8884 130.586 84.8884 110.339C84.8884 106.696 84.7233 103.177 84.4159 99.8555C86.5471 102.421 88.9186 105.026 91.4945 107.602C105.812 121.919 121.024 129.92 125.472 125.472C129.92 121.024 121.919 105.812 107.602 91.4947C105.027 88.9194 102.423 86.5484 99.8571 84.4175C103.178 84.7248 106.697 84.8899 110.339 84.8899C130.586 84.8899 147 79.7905 147 73.5001C147 67.2096 130.586 62.1102 110.339 62.1102C106.696 62.1102 103.177 62.2753 99.8555 62.5827C102.421 60.4515 105.026 58.08 107.602 55.5041C121.919 41.1871 129.92 25.975 125.472 21.527C121.024 17.079 105.812 25.0794 91.4947 39.3964C88.9187 41.9724 86.5473 44.5774 84.416 47.1434C84.7233 43.8222 84.8884 40.3036 84.8884 36.661C84.8884 16.4137 79.789 0 73.4986 0ZM73.3211 73.4249C73.3216 73.4499 73.3219 73.475 73.3219 73.5001C73.3219 73.5243 73.3217 73.5486 73.3212 73.5728C73.339 73.5899 73.3566 73.6072 73.3741 73.6247C73.392 73.6425 73.4097 73.6606 73.4272 73.6788C73.4509 73.6784 73.4747 73.6781 73.4986 73.6781C73.5139 73.6781 73.5293 73.6782 73.5446 73.6784C73.554 73.6785 73.5633 73.6787 73.5727 73.6789C73.59 73.6609 73.6075 73.643 73.6252 73.6253C73.6429 73.6076 73.6608 73.5901 73.6789 73.5727C73.6784 73.5485 73.6781 73.5243 73.6781 73.5C73.6781 73.4753 73.6784 73.4506 73.6789 73.4259C73.6609 73.4086 73.643 73.3911 73.6253 73.3735L73.5999 73.3477L73.574 73.3211L73.5409 73.3217L73.4986 73.3219C73.474 73.3219 73.4494 73.3217 73.4248 73.3212C73.4077 73.339 73.3904 73.3566 73.3729 73.3741C73.3558 73.3912 73.3386 73.4081 73.3211 73.4249Z" fill="url(#paint0_radial_1246_49245)"/>
</g>
<defs>
<filter id="filter0_ii_1246_49245" x="-2.56564" y="-2.56564" width="157.263" height="157.263" filterUnits="userSpaceOnUse" color-interpolation-filters="sRGB">
<feFlood flood-opacity="0" result="BackgroundImageFix"/>
<feBlend mode="normal" in="SourceGraphic" in2="BackgroundImageFix" result="shape"/>
<feColorMatrix in="SourceAlpha" type="matrix" values="0 0 0 0 0 0 0 0 0 0 0 0 0 0 0 0 0 0 127 0" result="hardAlpha"/>
<feOffset dx="7.69693" dy="7.69693"/>
<feGaussianBlur stdDeviation="5.13129"/>
<feComposite in2="hardAlpha" operator="arithmetic" k2="-1" k3="1"/>
<feColorMatrix type="matrix" values="0 0 0 0 0.788235 0 0 0 0 0.992157 0 0 0 0 0.886275 0 0 0 1 0"/>
<feBlend mode="normal" in2="shape" result="effect1_innerShadow_1246_49245"/>
<feColorMatrix in="SourceAlpha" type="matrix" values="0 0 0 0 0 0 0 0 0 0 0 0 0 0 0 0 0 0 127 0" result="hardAlpha"/>
<feOffset dx="-2.56564" dy="-2.56564"/>
<feGaussianBlur stdDeviation="2.56564"/>
<feComposite in2="hardAlpha" operator="arithmetic" k2="-1" k3="1"/>
<feColorMatrix type="matrix" values="0 0 0 0 0.482353 0 0 0 0 0.313726 0 0 0 0 0.756863 0 0 0 0.7 0"/>
<feBlend mode="normal" in2="effect1_innerShadow_1246_49245" result="effect2_innerShadow_1246_49245"/>
</filter>
<radialGradient id="paint0_radial_1246_49245" cx="0" cy="0" r="1" gradientUnits="userSpaceOnUse" gradientTransform="translate(81.331 70.0421) rotate(58.3757) scale(57.2484 57.4375)">
<stop/>
<stop offset="1" stop-color="#141414"/>
</radialGradient>
</defs>
</svg>
