<svg width="64" height="64" viewBox="0 0 64 64" fill="none" xmlns="http://www.w3.org/2000/svg">
<path d="M36.3955 27.8267C38.1883 27.8267 39.6417 26.3734 39.6417 24.5806C39.6417 22.7878 38.1883 21.3344 36.3955 21.3344C34.6028 21.3344 33.1494 22.7878 33.1494 24.5806C33.1494 26.3734 34.6028 27.8267 36.3955 27.8267Z" stroke="black" stroke-width="1.5" stroke-linecap="round" stroke-linejoin="round"/>
<path d="M23.407 35.2453C25.1998 35.2453 26.6531 33.7919 26.6531 31.9991C26.6531 30.2064 25.1998 28.753 23.407 28.753C21.6142 28.753 20.1609 30.2064 20.1609 31.9991C20.1609 33.7919 21.6142 35.2453 23.407 35.2453Z" stroke="black" stroke-width="1.5" stroke-linecap="round" stroke-linejoin="round"/>
<path d="M36.3955 42.6665C38.1883 42.6665 39.6417 41.2131 39.6417 39.4203C39.6417 37.6276 38.1883 36.1742 36.3955 36.1742C34.6028 36.1742 33.1494 37.6276 33.1494 39.4203C33.1494 41.2131 34.6028 42.6665 36.3955 42.6665Z" stroke="black" stroke-width="1.5" stroke-linecap="round" stroke-linejoin="round"/>
<path d="M26.6499 34.3176L33.1422 38.0275" stroke="black" stroke-width="1.5" stroke-linecap="round" stroke-linejoin="round"/>
<path d="M33.1422 25.972L26.6499 29.6819" stroke="black" stroke-width="1.5" stroke-linecap="round" stroke-linejoin="round"/>
<rect x="0.5" y="0.5" width="63" height="63" rx="31.5" stroke="black"/>
</svg>
